<?xml version="1.0" encoding="UTF-8"?><svg id="Layer_2" xmlns="http://www.w3.org/2000/svg" width="87.45" height="64.63" viewBox="0 0 87.45 64.63"><g id="Layer_1-2"><path d="M.84,7.92v-3.61c0-.21.04-.42.12-.62L2.17.65c.15-.36.5-.6.89-.6h24.33c.44,0,.86.2,1.13.54l1.02,1.28c.27.34.68.54,1.1.54h54.38c.49,0,.93.31,1.09.77l.87,2.5" fill="#fbe2a9" stroke="#000" stroke-miterlimit="10" stroke-width=".1"/><rect id="Paper" x="2.41" y="6.51" width="66.11" height="47.06" fill="#fff" stroke="#000" stroke-miterlimit="10" stroke-width=".03"/><rect id="Paper-2" x="2.41" y="6.51" width="66.11" height="47.06" transform="translate(2.15 -2.36) rotate(3.94)" fill="#fff" stroke="#000" stroke-miterlimit="10" stroke-width=".03"/><rect id="Paper-3" x="3.2" y="6.51" width="66.11" height="47.06" transform="translate(3.11 -3.4) rotate(5.61)" fill="#fff" stroke="#000" stroke-miterlimit="10" stroke-width=".03"/><path d="M87.4,6.57v58.02L.05,64.32V8.82c0-.5.4-.9.9-.9h24.02c.54,0,1.05-.25,1.39-.66.07-.08.13-.17.18-.26l.79-1.42c.27-.5.79-.8,1.36-.8h56.43c.46,0,.91.16,1.27.44l.6.47c.27.22.42.54.42.88Z" fill="#fbe2a9" stroke="#000" stroke-miterlimit="10" stroke-width=".1"/><path d="M20.66,31.26c-.09,1.22-.54,2.19-1.36,2.89-.82.7-1.89,1.05-3.22,1.05-1.46,0-2.61-.49-3.44-1.47s-1.25-2.33-1.25-4.04v-.7c0-1.09.19-2.06.58-2.89.39-.83.94-1.47,1.65-1.92.72-.45,1.55-.67,2.5-.67,1.31,0,2.37.35,3.17,1.05.8.7,1.27,1.69,1.39,2.96h-2.34c-.06-.73-.26-1.27-.61-1.6s-.89-.5-1.61-.5c-.78,0-1.37.28-1.75.84-.39.56-.59,1.43-.6,2.61v.86c0,1.23.19,2.13.56,2.7.37.57.96.85,1.76.85.72,0,1.26-.17,1.62-.5.36-.33.56-.84.61-1.54h2.34Z" fill="none" stroke="#12355b" stroke-linecap="round" stroke-linejoin="round" stroke-width=".5"/><path d="M28.08,32.23l2.58-8.55h2.61l-3.96,11.38h-2.45l-3.95-11.38h2.6l2.56,8.55Z" fill="none" stroke="#12355b" stroke-linecap="round" stroke-linejoin="round" stroke-width=".5"/><path d="M11.73,50.93v-11.38h3.98c1.38,0,2.43.26,3.14.79.71.53,1.07,1.3,1.07,2.32,0,.56-.14,1.05-.43,1.47-.29.42-.68.74-1.2.93.58.15,1.04.44,1.38.88.34.44.5.98.5,1.62,0,1.09-.35,1.92-1.05,2.48s-1.69.85-2.98.86h-4.42ZM14.07,44.32h1.73c1.18-.02,1.77-.49,1.77-1.41,0-.52-.15-.89-.45-1.11s-.77-.34-1.42-.34h-1.64v2.87ZM14.07,45.98v3.07h2.01c.55,0,.98-.13,1.29-.39.31-.26.46-.63.46-1.09,0-1.04-.54-1.57-1.62-1.59h-2.15Z" fill="none" stroke="#12355b" stroke-linecap="round" stroke-linejoin="round" stroke-width=".5"/><path d="M27.33,50.07c-.56.68-1.33,1.02-2.31,1.02-.91,0-1.6-.26-2.07-.78-.48-.52-.72-1.28-.73-2.29v-5.54h2.26v5.47c0,.88.4,1.32,1.2,1.32s1.29-.27,1.58-.8v-5.99h2.27v8.45h-2.12l-.06-.86Z" fill="none" stroke="#12355b" stroke-linecap="round" stroke-linejoin="round" stroke-width=".5"/><path d="M31.69,40.29c0-.34.11-.62.34-.84s.54-.33.93-.33.69.11.92.33.34.5.34.84-.12.62-.35.84-.54.33-.92.33-.69-.11-.92-.33-.35-.5-.35-.84ZM34.09,50.93h-2.27v-8.45h2.27v8.45Z" fill="none" stroke="#12355b" stroke-linecap="round" stroke-linejoin="round" stroke-width=".5"/><path d="M38.81,50.93h-2.27v-12h2.27v12Z" fill="none" stroke="#12355b" stroke-linecap="round" stroke-linejoin="round" stroke-width=".5"/><path d="M40.8,46.65c0-1.32.3-2.37.89-3.15s1.4-1.17,2.43-1.17c.82,0,1.5.31,2.04.92v-4.31h2.27v12h-2.04l-.11-.9c-.56.7-1.29,1.05-2.17,1.05-1,0-1.79-.39-2.39-1.18-.6-.78-.9-1.87-.9-3.27ZM43.05,46.81c0,.79.14,1.4.41,1.82.28.42.68.63,1.2.63.7,0,1.19-.29,1.48-.88v-3.34c-.28-.59-.77-.88-1.46-.88-1.09,0-1.63.88-1.63,2.65Z" fill="none" stroke="#12355b" stroke-linecap="round" stroke-linejoin="round" stroke-width=".5"/><path d="M54.53,51.09c-1.24,0-2.25-.38-3.03-1.14-.78-.76-1.17-1.77-1.17-3.04v-.22c0-.85.16-1.61.49-2.28.33-.67.79-1.18,1.39-1.55.6-.36,1.29-.54,2.06-.54,1.16,0,2.07.37,2.73,1.09.66.73,1,1.76,1,3.1v.92h-5.38c.07.55.29,1,.66,1.33.37.33.83.5,1.39.5.87,0,1.55-.31,2.04-.95l1.11,1.24c-.34.48-.8.85-1.38,1.12-.58.27-1.22.4-1.92.4ZM54.28,44.15c-.45,0-.81.15-1.09.46-.28.3-.46.74-.54,1.3h3.14v-.18c-.01-.5-.15-.89-.41-1.17s-.63-.41-1.11-.41Z" fill="none" stroke="#12355b" stroke-linecap="round" stroke-linejoin="round" stroke-width=".5"/><path d="M64.52,44.6c-.31-.04-.58-.06-.81-.06-.85,0-1.41.29-1.68.87v5.53h-2.26v-8.45h2.13l.06,1.01c.45-.78,1.08-1.16,1.88-1.16.25,0,.48.03.7.1l-.03,2.17Z" fill="none" stroke="#12355b" stroke-linecap="round" stroke-linejoin="round" stroke-width=".5"/><path d="M63.25,29.67l15.29,15.53c.79.8,1.56.96,2.32,2.04.76,1.08-3.14,4.02-3.61,4.17s-.93-.32-.93-.32c0,0,.17-1.71-.6-2.49,0,0-7.23-7.6-8.81-9.02-.49-.44-.96-.9-1.42-1.38-1.72-1.78-4.83-5.07-5.05-5.75l2.82-2.78Z" fill="#7f807a" stroke-width="0"/><path d="M63.25,29.67s-7.73-6.91-8.49-8.94l-1.08-.79-2.82,2.78,1.08,1.1s7.73,6.91,8.49,8.63" fill="#12355b" stroke-width="0"/><path d="M50.86,22.73l2.67-2.63s.31-.31,0-.62c0,0-2.32-2.35-1.85-2.82,0,0,.32-.53.94-.62,0,0,3.12-.6,3.58-.44l2.8.02s.62,0,.78-.15-1.86-.64-1.86-.64c0,0-4.66-1.59-8.25-.22,0,0-2.03.76-4.38,3.39,0,0-.18,2.96-2.98,3.56l-.95.93s-.16.47.15.78l2.01,2.04s.46.47.78.16l1.1-1.09s-.15-.78.48-1.71c0,0,1.26-2.17,2.97-1.38l1.86,1.41h.16" fill="#7f807a" stroke-width="0"/></g></svg>